<!DOCTYPE svg PUBLIC "-//W3C//DTD SVG 1.1//EN" "http://www.w3.org/Graphics/SVG/1.1/DTD/svg11.dtd">
<!-- Uploaded to: SVG Repo, www.svgrepo.com, Transformed by: SVG Repo Mixer Tools -->
<svg fill="#000000" width="800px" height="800px" viewBox="0 0 24 24" id="sign-in-2" data-name="Flat Color" xmlns="http://www.w3.org/2000/svg" class="icon flat-color" transform="matrix(-1, 0, 0, 1, 0, 0)">
<g id="SVGRepo_bgCarrier" stroke-width="0"/>
<g id="SVGRepo_tracerCarrier" stroke-linecap="round" stroke-linejoin="round"/>
<g id="SVGRepo_iconCarrier">
<path id="secondary" d="M21,11H9.41l1.3-1.29A1,1,0,0,0,9.29,8.29l-3,3a1,1,0,0,0,0,1.42l3,3a1,1,0,0,0,1.42,0,1,1,0,0,0,0-1.42L9.41,13H21a1,1,0,0,0,0-2Z" style="fill: #ffffff;"/>
<path id="primary" d="M13,21H4a2,2,0,0,1-2-2V5A2,2,0,0,1,4,3h9a2,2,0,0,1,2,2V8a1,1,0,0,1-2,0V5H4V19h9V16a1,1,0,0,1,2,0v3A2,2,0,0,1,13,21Z" style="fill: #ffffff;"/>
</g>
</svg>